<?xml version="1.0" encoding="UTF-8"?>
<!--
  Fondo de curvas de nivel de Koda. GENERADO — no editar a mano.
  Se regenera con: python scripts/generar_relieve.py
-->
<svg xmlns="http://www.w3.org/2000/svg" viewBox="0 0 1200 900" fill="none" stroke="#000" stroke-linecap="round">
  <path d="M0 -4C6 -1 24 13 35 15C47 16 59 11 71 5C82 -2 94 -14 106 -23C118 -33 129 -43 141 -52C153 -60 165 -66 176 -73C188 -81 200 -87 212 -95C224 -104 235 -115 247 -125C259 -136 271 -150 282 -160C294 -169 306 -179 318 -183C329 -186 341 -185 353 -182C365 -178 376 -168 388 -161C400 -155 412 -145 424 -141C435 -137 447 -136 459 -137C471 -139 482 -145 494 -150C506 -155 518 -163 529 -167C541 -171 553 -174 565 -176C576 -178 588 -178 600 -180C612 -182 624 -185 635 -189C647 -194 659 -202 671 -208C682 -213 694 -221 706 -223C718 -225 729 -224 741 -217C753 -211 765 -198 776 -184C788 -171 800 -151 812 -136C824 -120 835 -104 847 -92C859 -80 871 -72 882 -65C894 -58 906 -54 918 -49C929 -44 941 -40 953 -35C965 -30 976 -23 988 -20C1000 -16 1012 -13 1024 -14C1035 -16 1047 -22 1059 -30C1071 -38 1082 -52 1094 -63C1106 -73 1118 -87 1129 -94C1141 -101 1153 -106 1165 -106C1176 -107 1194 -99 1200 -98" stroke-width="1.6" opacity="0.9"/>
  <path d="M0 53C6 53 24 58 35 56C47 53 59 44 71 37C82 30 94 20 106 14C118 7 129 2 141 -3C153 -8 165 -11 176 -17C188 -24 200 -31 212 -40C224 -48 235 -60 247 -69C259 -78 271 -88 282 -93C294 -98 306 -99 318 -96C329 -94 341 -86 353 -80C365 -74 376 -64 388 -60C400 -56 412 -54 424 -57C435 -59 447 -66 459 -73C471 -80 482 -91 494 -98C506 -105 518 -112 529 -117C541 -123 553 -125 565 -130C576 -134 588 -138 600 -145C612 -151 624 -160 635 -168C647 -176 659 -187 671 -192C682 -196 694 -200 706 -197C718 -194 729 -185 741 -174C753 -162 765 -144 776 -129C788 -115 800 -97 812 -85C824 -72 835 -62 847 -54C859 -47 871 -43 882 -37C894 -32 906 -28 918 -22C929 -17 941 -9 953 -4C965 1 976 8 988 9C1000 10 1012 9 1024 4C1035 -0 1047 -11 1059 -19C1071 -27 1082 -39 1094 -44C1106 -50 1118 -54 1129 -53C1141 -53 1153 -46 1165 -40C1176 -34 1194 -21 1200 -18" stroke-width="0.9" opacity="0.55"/>
  <path d="M0 86C6 85 24 81 35 76C47 72 59 64 71 60C82 55 94 51 106 48C118 46 129 45 141 42C153 39 165 36 176 30C188 25 200 16 212 9C224 2 235 -7 247 -11C259 -15 271 -16 282 -14C294 -12 306 -4 318 2C329 8 341 19 353 24C365 29 376 33 388 32C400 30 412 24 424 16C435 9 447 -3 459 -13C471 -22 482 -32 494 -40C506 -48 518 -54 529 -60C541 -67 553 -72 565 -80C576 -89 588 -99 600 -109C612 -119 624 -132 635 -140C647 -148 659 -157 671 -158C682 -159 694 -155 706 -147C718 -139 729 -124 741 -111C753 -99 765 -82 776 -70C788 -58 800 -48 812 -41C824 -33 835 -30 847 -25C859 -21 871 -18 882 -13C894 -8 906 -2 918 4C929 9 941 17 953 20C965 23 976 25 988 23C1000 20 1012 13 1024 8C1035 2 1047 -8 1059 -13C1071 -17 1082 -21 1094 -19C1106 -17 1118 -10 1129 -2C1141 6 1153 19 1165 28C1176 38 1194 50 1200 54" stroke-width="0.9" opacity="0.55"/>
  <path d="M0 99C6 97 24 90 35 87C47 84 59 81 71 80C82 79 94 81 106 81C118 81 129 81 141 79C153 77 165 73 176 69C188 65 200 58 212 56C224 54 235 52 247 56C259 59 271 67 282 75C294 82 306 95 318 102C329 109 341 116 353 117C365 118 376 114 388 108C400 101 412 89 424 80C435 70 447 58 459 48C471 39 482 32 494 23C506 15 518 9 529 -0C541 -9 553 -20 565 -31C576 -43 588 -58 600 -69C612 -80 624 -92 635 -97C647 -102 659 -103 671 -99C682 -96 694 -85 706 -75C718 -65 729 -50 741 -40C753 -30 765 -20 776 -14C788 -8 800 -6 812 -3C824 0 835 0 847 3C859 6 871 10 882 14C894 18 906 25 918 28C929 31 941 34 953 34C965 33 976 28 988 23C1000 19 1012 9 1024 6C1035 2 1047 -3 1059 -0C1071 2 1082 9 1094 18C1106 27 1118 42 1129 54C1141 66 1153 80 1165 90C1176 99 1194 108 1200 111" stroke-width="0.9" opacity="0.55"/>
  <path d="M0 102C6 101 24 97 35 96C47 96 59 99 71 101C82 103 94 107 106 108C118 109 129 108 141 108C153 107 165 103 176 103C188 103 200 102 212 107C224 111 235 120 247 130C259 140 271 154 282 164C294 174 306 186 318 190C329 194 341 194 353 191C365 187 376 177 388 169C400 160 412 148 424 138C435 129 447 120 459 112C471 104 482 98 494 88C506 79 518 69 529 58C541 46 553 31 565 18C576 6 588 -9 600 -17C612 -26 624 -31 635 -31C647 -31 659 -25 671 -18C682 -11 694 1 706 10C718 18 729 26 741 31C753 36 765 37 776 37C788 38 800 35 812 35C824 35 835 35 847 36C859 38 871 42 882 44C894 46 906 49 918 48C929 47 941 43 953 38C965 34 976 24 988 20C1000 15 1012 10 1024 11C1035 12 1047 17 1059 26C1071 35 1082 51 1094 64C1106 78 1118 95 1129 107C1141 120 1153 131 1165 139C1176 147 1194 153 1200 156" stroke-width="0.9" opacity="0.55"/>
  <path d="M0 106C6 107 24 108 35 110C47 113 59 118 71 121C82 124 94 127 106 128C118 130 129 129 141 130C153 132 165 133 176 139C188 145 200 154 212 166C224 177 235 194 247 207C259 220 271 235 282 244C294 252 306 257 318 257C329 257 341 251 353 245C365 238 376 228 388 219C400 211 412 203 424 196C435 188 447 183 459 175C471 167 482 159 494 149C506 138 518 124 529 112C541 99 553 84 565 74C576 64 588 55 600 52C612 49 624 52 635 56C647 61 659 71 671 78C682 84 694 92 706 96C718 99 729 99 741 97C753 96 765 90 776 87C788 84 800 80 812 78C824 76 835 77 847 76C859 76 871 77 882 75C894 72 906 68 918 62C929 57 941 47 953 40C965 34 976 26 988 25C1000 24 1012 26 1024 33C1035 41 1047 55 1059 68C1071 81 1082 100 1094 114C1106 128 1118 141 1129 152C1141 162 1153 168 1165 175C1176 182 1194 190 1200 193" stroke-width="1.6" opacity="0.9"/>
  <path d="M0 118C6 120 24 125 35 128C47 132 59 136 71 139C82 142 94 142 106 145C118 148 129 149 141 156C153 162 165 171 176 184C188 196 200 214 212 229C224 245 235 263 247 276C259 288 271 298 282 302C294 306 306 304 318 301C329 298 341 290 353 284C365 278 376 271 388 265C400 259 412 256 424 250C435 245 447 240 459 232C471 224 482 213 494 202C506 191 518 176 529 166C541 156 553 146 565 141C576 137 588 138 600 140C612 143 624 152 635 158C647 164 659 172 671 175C682 178 694 178 706 175C718 173 729 165 741 159C753 154 765 146 776 141C788 136 800 133 812 129C824 126 835 124 847 120C859 116 871 111 882 103C894 96 906 84 918 76C929 67 941 56 953 52C965 47 976 45 988 49C1000 53 1012 64 1024 76C1035 87 1047 105 1059 119C1071 133 1082 148 1094 159C1106 170 1118 178 1129 186C1141 193 1153 198 1165 205C1176 211 1194 222 1200 225" stroke-width="0.9" opacity="0.55"/>
  <path d="M0 140C6 142 24 147 35 149C47 152 59 153 71 156C82 159 94 160 106 166C118 171 129 179 141 191C153 203 165 221 176 237C188 254 200 275 212 290C224 305 235 319 247 327C259 335 271 337 282 337C294 338 306 332 318 328C329 325 341 319 353 315C365 312 376 310 388 307C400 304 412 303 424 298C435 293 447 286 459 278C471 270 482 258 494 249C506 241 518 231 529 226C541 222 553 222 565 224C576 227 588 235 600 241C612 247 624 257 635 260C647 264 659 266 671 263C682 261 694 253 706 246C718 240 729 229 741 222C753 214 765 208 776 201C788 195 800 192 812 185C824 179 835 173 847 164C859 155 871 142 882 131C894 120 906 105 918 97C929 89 941 83 953 83C965 83 976 89 988 97C1000 106 1012 121 1024 134C1035 146 1047 161 1059 171C1071 182 1082 190 1094 198C1106 205 1118 209 1129 215C1141 220 1153 226 1165 233C1176 240 1194 252 1200 255" stroke-width="0.9" opacity="0.55"/>
  <path d="M0 170C6 170 24 172 35 173C47 175 59 174 71 179C82 183 94 188 106 198C118 209 129 224 141 240C153 256 165 277 176 293C188 309 200 327 212 337C224 348 235 354 247 357C259 360 271 356 282 355C294 353 306 348 318 347C329 345 341 344 353 344C365 343 376 345 388 343C400 342 412 339 424 335C435 330 447 322 459 316C471 309 482 301 494 298C506 295 518 294 529 298C541 301 553 310 565 317C576 325 588 336 600 342C612 348 624 352 635 352C647 351 659 345 671 339C682 332 694 321 706 313C718 304 729 295 741 287C753 280 765 274 776 267C788 259 800 252 812 242C824 231 835 218 847 205C859 192 871 176 882 164C894 153 906 142 918 137C929 133 941 134 953 139C965 143 976 155 988 165C1000 175 1012 188 1024 198C1035 207 1047 215 1059 220C1071 226 1082 229 1094 233C1106 237 1118 240 1129 245C1141 250 1153 257 1165 263C1176 269 1194 277 1200 280" stroke-width="0.9" opacity="0.55"/>
  <path d="M0 205C6 205 24 202 35 204C47 206 59 208 71 215C82 222 94 234 106 248C118 261 129 281 141 297C153 313 165 331 176 343C188 355 200 363 212 368C224 372 235 370 247 370C259 369 271 365 282 364C294 362 306 362 318 363C329 364 341 367 353 369C365 370 376 371 388 370C400 369 412 364 424 361C435 358 447 352 459 351C471 349 482 349 494 354C506 359 518 369 529 378C541 387 553 402 565 410C576 419 588 428 600 430C612 433 624 430 635 426C647 421 659 411 671 403C682 395 694 385 706 377C718 369 729 363 741 355C753 347 765 340 776 330C788 320 800 307 812 294C824 280 835 262 847 249C859 235 871 220 882 212C894 204 906 201 918 202C929 202 941 210 953 217C965 224 976 236 988 243C1000 250 1012 257 1024 261C1035 265 1047 266 1059 267C1071 269 1082 268 1094 270C1106 272 1118 276 1129 280C1141 284 1153 290 1165 293C1176 295 1194 295 1200 296" stroke-width="0.9" opacity="0.55"/>
  <path d="M0 248C6 248 24 245 35 249C47 253 59 260 71 270C82 281 94 297 106 311C118 325 129 343 141 354C153 366 165 375 176 380C188 385 200 384 212 383C224 382 235 377 247 375C259 374 271 372 282 373C294 374 306 378 318 380C329 383 341 387 353 388C365 389 376 388 388 388C400 387 412 383 424 384C435 384 447 385 459 391C471 397 482 408 494 419C506 430 518 447 529 459C541 471 553 484 565 491C576 497 588 499 600 498C612 497 624 490 635 483C647 477 659 468 671 461C682 454 694 448 706 441C718 434 729 428 741 419C753 410 765 400 776 387C788 374 800 357 812 343C824 328 835 312 847 301C859 291 871 284 882 281C894 279 906 283 918 288C929 292 941 302 953 308C965 313 976 319 988 322C1000 324 1012 323 1024 322C1035 321 1047 317 1059 316C1071 315 1082 314 1094 315C1106 315 1118 319 1129 320C1141 320 1153 321 1165 319C1176 316 1194 306 1200 303" stroke-width="1.6" opacity="0.9"/>
  <path d="M0 304C6 305 24 306 35 313C47 319 59 332 71 343C82 354 94 370 106 380C118 390 129 399 141 404C153 408 165 406 176 405C188 403 200 396 212 392C224 389 235 385 247 384C259 384 271 386 282 388C294 391 306 395 318 398C329 400 341 401 353 402C365 403 376 400 388 402C400 404 412 405 424 411C435 418 447 429 459 441C471 454 482 472 494 487C506 502 518 519 529 530C541 540 553 547 565 550C576 553 588 549 600 546C612 542 624 535 635 530C647 525 659 520 671 514C682 509 694 506 706 499C718 493 729 485 741 474C753 464 765 449 776 436C788 423 800 406 812 395C824 384 835 374 847 370C859 366 871 368 882 370C894 373 906 382 918 387C929 391 941 397 953 399C965 401 976 399 988 396C1000 393 1012 387 1024 382C1035 378 1047 374 1059 371C1071 368 1082 368 1094 366C1106 364 1118 364 1129 359C1141 355 1153 348 1165 340C1176 331 1194 315 1200 310" stroke-width="0.9" opacity="0.55"/>
  <path d="M0 376C6 379 24 387 35 395C47 403 59 416 71 425C82 433 94 441 106 444C118 447 129 445 141 442C153 439 165 429 176 424C188 418 200 410 212 407C224 403 235 402 247 403C259 403 271 407 282 409C294 410 306 413 318 413C329 414 341 413 353 414C365 416 376 416 388 423C400 429 412 438 424 451C435 464 447 482 459 499C471 515 482 536 494 549C506 563 518 575 529 581C541 588 553 588 565 588C576 588 588 582 600 579C612 576 624 573 635 570C647 567 659 566 671 562C682 558 694 555 706 547C718 540 729 529 741 518C753 507 765 492 776 482C788 472 800 462 812 457C824 453 835 453 847 455C859 458 871 466 882 471C894 476 906 483 918 485C929 487 941 486 953 483C965 480 976 472 988 466C1000 460 1012 452 1024 447C1035 441 1047 438 1059 433C1071 429 1082 426 1094 420C1106 414 1118 406 1129 396C1141 386 1153 371 1165 360C1176 348 1194 332 1200 326" stroke-width="0.9" opacity="0.55"/>
  <path d="M0 465C6 469 24 481 35 488C47 494 59 502 71 504C82 506 94 504 106 499C118 494 129 483 141 474C153 465 165 454 176 447C188 440 200 435 212 433C224 430 235 431 247 431C259 431 271 433 282 433C294 433 306 431 318 431C329 431 341 430 353 435C365 439 376 446 388 457C400 469 412 486 424 503C435 519 447 541 459 556C471 572 482 587 494 596C506 606 518 610 529 612C541 614 553 611 565 610C576 609 588 606 600 606C612 605 624 605 635 604C647 604 659 604 671 600C682 596 694 590 706 582C718 575 729 563 741 555C753 546 765 537 776 533C788 529 800 529 812 532C824 535 835 544 847 551C859 557 871 566 882 570C894 574 906 575 918 573C929 571 941 564 953 558C965 551 976 542 988 535C1000 528 1012 522 1024 516C1035 509 1047 505 1059 498C1071 490 1082 482 1094 471C1106 459 1118 444 1129 430C1141 416 1153 398 1165 387C1176 376 1194 367 1200 363" stroke-width="0.9" opacity="0.55"/>
  <path d="M0 564C6 567 24 578 35 579C47 580 59 579 71 573C82 567 94 555 106 544C118 533 129 519 141 508C153 498 165 489 176 483C188 477 200 474 212 472C224 469 235 469 247 467C259 465 271 462 282 461C294 459 306 456 318 457C329 459 341 462 353 471C365 480 376 494 388 509C400 524 412 545 424 560C435 576 447 593 459 604C471 615 482 622 494 626C506 630 518 628 529 628C541 628 553 625 565 626C576 626 588 627 600 628C612 629 624 632 635 632C647 631 659 629 671 625C682 621 694 613 706 607C718 601 729 593 741 591C753 589 765 589 776 594C788 598 800 608 812 616C824 625 835 637 847 644C859 651 871 656 882 656C894 657 906 652 918 647C929 642 941 633 953 626C965 619 976 611 988 605C1000 598 1012 593 1024 585C1035 577 1047 569 1059 558C1071 546 1082 531 1094 516C1106 501 1118 481 1129 467C1141 454 1153 440 1165 433C1176 426 1194 427 1200 426" stroke-width="0.9" opacity="0.55"/>
  <path d="M0 661C6 661 24 663 35 658C47 653 59 641 71 629C82 617 94 600 106 588C118 575 129 562 141 552C153 543 165 538 176 532C188 527 200 525 212 521C224 517 235 513 247 509C259 505 271 499 282 498C294 496 306 495 318 500C329 505 341 515 353 527C365 539 376 558 388 572C400 587 412 604 424 615C435 626 447 634 459 638C471 643 482 641 494 641C506 641 518 638 529 638C541 638 553 639 565 641C576 642 588 647 600 648C612 649 624 651 635 649C647 648 659 643 671 640C682 637 694 631 706 630C718 629 729 630 741 636C753 641 765 653 776 663C788 674 800 689 812 699C824 709 835 719 847 724C859 728 871 727 882 725C894 722 906 715 918 709C929 703 941 696 953 690C965 684 976 679 988 672C1000 666 1012 659 1024 649C1035 638 1047 625 1059 610C1071 595 1082 575 1094 560C1106 545 1118 528 1129 518C1141 508 1153 502 1165 501C1176 499 1194 508 1200 509" stroke-width="1.6" opacity="0.9"/>
  <path d="M0 744C6 740 24 731 35 720C47 709 59 691 71 677C82 664 94 648 106 636C118 625 129 617 141 609C153 602 165 598 176 593C188 587 200 582 212 576C224 570 235 563 247 558C259 554 271 549 282 550C294 552 306 557 318 565C329 573 341 588 353 600C365 613 376 629 388 639C400 649 412 657 424 660C435 664 447 662 459 661C471 660 482 655 494 653C506 652 518 651 529 651C541 652 553 656 565 658C576 659 588 662 600 663C612 663 624 661 635 659C647 657 659 653 671 653C682 653 694 654 706 660C718 667 729 678 741 691C753 703 765 721 776 734C788 747 800 762 812 770C824 778 835 782 847 783C859 784 871 780 882 776C894 773 906 767 918 762C929 758 941 755 953 750C965 745 976 741 988 733C1000 725 1012 714 1024 701C1035 688 1047 670 1059 655C1071 640 1082 622 1094 611C1106 599 1118 591 1129 587C1141 583 1153 586 1165 589C1176 591 1194 601 1200 603" stroke-width="0.9" opacity="0.55"/>
  <path d="M0 806C6 799 24 781 35 768C47 754 59 738 71 726C82 713 94 703 106 695C118 686 129 682 141 675C153 669 165 664 176 657C188 651 200 642 212 636C224 630 235 622 247 620C259 618 271 619 282 623C294 628 306 639 318 648C329 658 341 672 353 680C365 688 376 696 388 699C400 701 412 699 424 696C435 693 447 685 459 681C471 677 482 672 494 670C506 669 518 670 529 671C541 672 553 675 565 675C576 675 588 674 600 673C612 672 624 668 635 668C647 668 659 668 671 674C682 680 694 691 706 703C718 716 729 735 741 751C753 766 765 784 776 796C788 808 800 816 812 821C824 826 835 825 847 824C859 823 871 819 882 817C894 814 906 812 918 810C929 807 941 806 953 801C965 796 976 789 988 779C1000 770 1012 755 1024 742C1035 728 1047 711 1059 700C1071 689 1082 679 1094 675C1106 670 1118 671 1129 673C1141 676 1153 683 1165 687C1176 691 1194 695 1200 696" stroke-width="0.9" opacity="0.55"/>
  <path d="M0 848C6 842 24 821 35 809C47 798 59 787 71 779C82 770 94 766 106 760C118 754 129 750 141 744C153 738 165 731 176 724C188 717 200 708 212 704C224 700 235 697 247 699C259 701 271 708 282 715C294 722 306 734 318 740C329 747 341 754 353 756C365 757 376 754 388 749C400 744 412 734 424 727C435 720 447 711 459 706C471 702 482 699 494 698C506 696 518 697 529 696C541 695 553 694 565 692C576 690 588 686 600 685C612 684 624 682 635 686C647 690 659 699 671 711C682 722 694 741 706 757C718 773 729 793 741 807C753 821 765 834 776 841C788 849 800 851 812 853C824 855 835 852 847 852C859 851 871 851 882 850C894 850 906 851 918 849C929 847 941 845 953 839C965 833 976 822 988 812C1000 802 1012 787 1024 777C1035 767 1047 757 1059 753C1071 749 1082 750 1094 753C1106 755 1118 764 1129 769C1141 774 1153 781 1165 783C1176 785 1194 781 1200 781" stroke-width="0.9" opacity="0.55"/>
  <path d="M0 879C6 874 24 858 35 851C47 844 59 841 71 837C82 832 94 831 106 826C118 822 129 817 141 811C153 806 165 798 176 793C188 788 200 784 212 784C224 784 235 789 247 794C259 799 271 810 282 816C294 821 306 829 318 830C329 831 341 827 353 821C365 815 376 803 388 794C400 784 412 771 424 763C435 755 447 748 459 744C471 739 482 737 494 734C506 731 518 729 529 725C541 722 553 716 565 713C576 710 588 705 600 707C612 708 624 713 635 722C647 732 659 748 671 763C682 778 694 799 706 814C718 828 729 843 741 852C753 862 765 866 776 870C788 873 800 872 812 872C824 873 835 873 847 874C859 875 871 878 882 878C894 879 906 880 918 877C929 875 941 869 953 862C965 855 976 843 988 835C1000 828 1012 819 1024 816C1035 813 1047 814 1059 818C1071 822 1082 832 1094 839C1106 846 1118 856 1129 861C1141 865 1153 867 1165 866C1176 865 1194 857 1200 855" stroke-width="0.9" opacity="0.55"/>
  <path d="M0 906C6 905 24 899 35 897C47 895 59 896 71 894C82 893 94 891 106 888C118 885 129 879 141 876C153 872 165 868 176 868C188 868 200 871 212 876C224 881 235 891 247 897C259 903 271 911 282 913C294 914 306 912 318 906C329 900 341 888 353 877C365 865 376 850 388 839C400 828 412 818 424 810C435 802 447 798 459 792C471 787 482 783 494 777C506 772 518 765 529 759C541 754 553 746 565 744C576 743 588 743 600 749C612 754 624 766 635 779C647 792 659 811 671 825C682 839 694 854 706 864C718 874 729 880 741 884C753 887 765 886 776 887C788 887 800 886 812 887C824 889 835 892 847 893C859 895 871 899 882 899C894 898 906 896 918 892C929 888 941 880 953 874C965 869 976 861 988 860C1000 858 1012 859 1024 865C1035 870 1047 881 1059 891C1071 900 1082 914 1094 922C1106 930 1118 936 1129 938C1141 941 1153 938 1165 935C1176 932 1194 924 1200 921" stroke-width="1.6" opacity="0.9"/>
  <path d="M0 937C6 938 24 941 35 942C47 944 59 947 71 947C82 947 94 945 106 944C118 943 129 940 141 941C153 942 165 945 176 951C188 956 200 967 212 974C224 981 235 992 247 995C259 998 271 999 282 995C294 990 306 979 318 968C329 957 341 941 353 928C365 915 376 902 388 892C400 882 412 875 424 868C435 860 447 855 459 848C471 841 482 832 494 825C506 817 518 807 529 802C541 797 553 793 565 795C576 796 588 804 600 813C612 822 624 838 635 850C647 863 659 877 671 886C682 896 694 902 706 905C718 908 729 906 741 905C753 905 765 902 776 901C788 901 800 903 812 904C824 906 835 910 847 911C859 911 871 912 882 909C894 907 906 901 918 897C929 894 941 887 953 886C965 886 976 887 988 893C1000 899 1012 911 1024 923C1035 934 1047 951 1059 962C1071 974 1082 985 1094 991C1106 997 1118 998 1129 998C1141 999 1153 994 1165 991C1176 989 1194 984 1200 982" stroke-width="0.9" opacity="0.55"/>
  <path d="M0 970C6 972 24 980 35 984C47 987 59 989 71 991C82 993 94 993 106 996C118 999 129 1003 141 1010C153 1017 165 1029 176 1038C188 1047 200 1060 212 1067C224 1073 235 1078 247 1077C259 1075 271 1067 282 1058C294 1048 306 1033 318 1020C329 1007 341 992 353 981C365 970 376 962 388 953C400 945 412 939 424 932C435 924 447 915 459 907C471 898 482 886 494 879C506 871 518 863 529 861C541 860 553 862 565 868C576 873 588 885 600 895C612 905 624 918 635 926C647 934 659 939 671 941C682 943 694 939 706 937C718 934 729 928 741 926C753 923 765 921 776 921C788 921 800 923 812 924C824 924 835 925 847 923C859 922 871 917 882 914C894 911 906 904 918 903C929 902 941 903 953 909C965 915 976 926 988 939C1000 951 1012 970 1024 984C1035 998 1047 1013 1059 1023C1071 1032 1082 1038 1094 1041C1106 1045 1118 1043 1129 1043C1141 1042 1153 1040 1165 1039C1176 1038 1194 1037 1200 1036" stroke-width="0.9" opacity="0.55"/>
  <path d="M0 1002C6 1004 24 1013 35 1018C47 1023 59 1025 71 1031C82 1036 94 1041 106 1050C118 1059 129 1071 141 1083C153 1095 165 1111 176 1120C188 1130 200 1140 212 1142C224 1145 235 1142 247 1135C259 1129 271 1116 282 1104C294 1093 306 1079 318 1068C329 1057 341 1048 353 1040C365 1032 376 1027 388 1019C400 1012 412 1005 424 996C435 988 447 977 459 968C471 959 482 949 494 945C506 940 518 939 529 941C541 944 553 952 565 959C576 967 588 978 600 985C612 991 624 996 635 996C647 997 659 992 671 987C682 983 694 974 706 968C718 962 729 957 741 953C753 950 765 950 776 948C788 947 800 947 812 944C824 942 835 937 847 933C859 929 871 922 882 920C894 918 906 916 918 921C929 925 941 935 953 947C965 959 976 977 988 993C1000 1008 1012 1026 1024 1038C1035 1050 1047 1060 1059 1066C1071 1072 1082 1073 1094 1075C1106 1077 1118 1076 1129 1077C1141 1078 1153 1080 1165 1080C1176 1080 1194 1079 1200 1079" stroke-width="0.9" opacity="0.55"/>
</svg>
